<svg xmlns="http://www.w3.org/2000/svg" xmlns:xlink="http://www.w3.org/1999/xlink" id="Layer_1" data-name="Layer 1" viewBox="0 0 200 200"><defs><style>.cls-1{fill:url(#linear-gradient);}.cls-2{fill:#fff;}</style><linearGradient id="linear-gradient" x1="162.74" y1="208.68" x2="37.26" y2="-8.68" gradientUnits="userSpaceOnUse"><stop offset="0" stop-color="#6fcfeb"></stop><stop offset="0.7" stop-color="#5830c5"></stop></linearGradient></defs><rect class="cls-1" width="200" height="200" rx="30.38"></rect><path class="cls-2" d="M74.58,98.14a17.45,17.45,0,0,0-17,0,16.16,16.16,0,0,0-5.93,6,17.49,17.49,0,0,0-2.24,8.59v27.6a3.15,3.15,0,0,0,5.33,2.21,3.07,3.07,0,0,0,.84-2.21V124a15.48,15.48,0,0,0,5.12,4,15.27,15.27,0,0,0,14.49-.72,15.76,15.76,0,0,0,5.54-6,17.87,17.87,0,0,0,2-8.57,16.76,16.76,0,0,0-2.21-8.59A16.31,16.31,0,0,0,74.58,98.14Zm.82,20.39a10.79,10.79,0,0,1-3.84,4.06,10.94,10.94,0,0,1-11,0,10.49,10.49,0,0,1-3.84-4.06,11.91,11.91,0,0,1-1.39-5.78,12.09,12.09,0,0,1,1.39-5.84,10.54,10.54,0,0,1,3.84-4,10.94,10.94,0,0,1,11,0,10.84,10.84,0,0,1,3.84,4,11.88,11.88,0,0,1,1.42,5.84A11.7,11.7,0,0,1,75.4,118.53Z"></path><path class="cls-2" d="M111.92,98.08a17,17,0,0,0-8.59-2.15,17.17,17.17,0,0,0-8.66,2.15,15.63,15.63,0,0,0-5.9,5.93,18.82,18.82,0,0,0,0,17.43,15.63,15.63,0,0,0,5.9,5.93,18.5,18.5,0,0,0,17.31,0,15.34,15.34,0,0,0,5.87-5.93,18.85,18.85,0,0,0,0-17.43A15.56,15.56,0,0,0,111.92,98.08Zm.76,20.54a10.18,10.18,0,0,1-3.78,4,11.42,11.42,0,0,1-11.14,0,10.4,10.4,0,0,1-3.81-4,12,12,0,0,1-1.39-5.87,12.21,12.21,0,0,1,1.39-5.9,10.39,10.39,0,0,1,3.81-4,11.42,11.42,0,0,1,11.14,0,10.17,10.17,0,0,1,3.78,4,12.43,12.43,0,0,1,1.36,5.9A12.2,12.2,0,0,1,112.68,118.62Z"></path><path class="cls-2" d="M145.66,112.09a26.84,26.84,0,0,0-7.17-2.3,29.27,29.27,0,0,1-5-1.36,4.8,4.8,0,0,1-2.26-1.58,3.44,3.44,0,0,1-.58-2,2.89,2.89,0,0,1,1.85-2.67,10.2,10.2,0,0,1,4.5-.9,13.81,13.81,0,0,1,4.06.54,8.21,8.21,0,0,1,3.27,2A4.34,4.34,0,0,0,146.6,105a3,3,0,0,0,2.3-.43,2.34,2.34,0,0,0,1-1.78,2.81,2.81,0,0,0-.78-2,12.17,12.17,0,0,0-4.9-3.51,18.44,18.44,0,0,0-7.08-1.27,17.63,17.63,0,0,0-5.93,1,10.87,10.87,0,0,0-4.66,3,7.37,7.37,0,0,0-1.82,5.11A7.61,7.61,0,0,0,127.5,111q2.76,2.41,8.87,3.63c3.15.57,5.31,1.29,6.5,2.18A3.7,3.7,0,0,1,144.6,120a3.56,3.56,0,0,1-1.91,3,10.15,10.15,0,0,1-5.35,1.15,12.39,12.39,0,0,1-5.06-1,9.4,9.4,0,0,1-3.29-2.15,3.36,3.36,0,0,0-2-1.06,3.17,3.17,0,0,0-2.39.82,2.9,2.9,0,0,0-1.18,2,2.65,2.65,0,0,0,.75,2.21,15.16,15.16,0,0,0,5.6,3.3,23.11,23.11,0,0,0,7.84,1.3,17.19,17.19,0,0,0,7.17-1.33,10.23,10.23,0,0,0,4.36-3.57,8.91,8.91,0,0,0,1.48-5,7.86,7.86,0,0,0-1.15-4.26A9.64,9.64,0,0,0,145.66,112.09Z"></path><path class="cls-2" d="M157.87,65.55a4.87,4.87,0,0,0-1-1,6.11,6.11,0,0,0-1.1-.69,5.78,5.78,0,0,0-1.17-.4,5.66,5.66,0,0,0-1.11-.15h-6.88a1.29,1.29,0,0,1-1-.35,1.43,1.43,0,0,1-.35-1,1.49,1.49,0,0,1,.35-1.06,1.3,1.3,0,0,1,1-.37h10.59V56.58H146.66a5.58,5.58,0,0,0-1.69.28,5,5,0,0,0-3,2.57,6,6,0,0,0,0,4.94A4.94,4.94,0,0,0,143.26,66a4.88,4.88,0,0,0,1.71.91,5.58,5.58,0,0,0,1.69.28h6.85a1.54,1.54,0,0,1,.58.11,1.13,1.13,0,0,1,.41.27,1.39,1.39,0,0,1,.26.44,1.64,1.64,0,0,1,.1.6,1.43,1.43,0,0,1-.35,1,1.32,1.32,0,0,1-1,.36H141.56v3.89h11.95a5.63,5.63,0,0,0,1.12-.12,6.33,6.33,0,0,0,1.16-.39,5.56,5.56,0,0,0,1.11-.67,4.44,4.44,0,0,0,1-1,5.34,5.34,0,0,0,.65-1.36,5.88,5.88,0,0,0,.24-1.73,6.12,6.12,0,0,0-.23-1.72A5.19,5.19,0,0,0,157.87,65.55Z"></path><path class="cls-2" d="M56,71.85a7,7,0,0,0,2.33,1.53,7.73,7.73,0,0,0,2.91.54h4a7.93,7.93,0,0,0,2.91-.54,7.05,7.05,0,0,0,2.32-1.53,6.89,6.89,0,0,0,1.53-2.33,7.8,7.8,0,0,0,.55-2.93V63.91A7.83,7.83,0,0,0,72.07,61a6.85,6.85,0,0,0-1.53-2.32,7.1,7.1,0,0,0-2.32-1.53,7.73,7.73,0,0,0-2.91-.55h-4a7.73,7.73,0,0,0-2.91.55A7.15,7.15,0,0,0,56,58.66,7,7,0,0,0,54.5,61,7.64,7.64,0,0,0,54,63.91v2.68a7.76,7.76,0,0,0,.55,2.93A7.07,7.07,0,0,0,56,71.85Zm1.8-7.94a4,4,0,0,1,.25-1.43,3.26,3.26,0,0,1,.7-1.07,3.4,3.4,0,0,1,1.07-.69,4,4,0,0,1,1.42-.25h4a3.93,3.93,0,0,1,1.41.25,3.18,3.18,0,0,1,1.07.69,3.13,3.13,0,0,1,.69,1.07,4,4,0,0,1,.25,1.43v2.68A4,4,0,0,1,68.48,68a3,3,0,0,1-.69,1.07,3.18,3.18,0,0,1-1.08.69,3.78,3.78,0,0,1-1.42.25h-4a3.78,3.78,0,0,1-1.42-.25A3.07,3.07,0,0,1,58.09,68a4,4,0,0,1-.25-1.43Z"></path><path class="cls-2" d="M91.64,71.85a6.89,6.89,0,0,0,1.53-2.33,7.6,7.6,0,0,0,.55-2.93V63.91A7.83,7.83,0,0,0,93.17,61a6.87,6.87,0,0,0-1.54-2.32,7.17,7.17,0,0,0-2.31-1.53,7.73,7.73,0,0,0-2.91-.55h-4a7.73,7.73,0,0,0-2.91.55,7.15,7.15,0,0,0-2.33,1.53A7,7,0,0,0,75.6,61a7.64,7.64,0,0,0-.55,2.93v2.68a7.76,7.76,0,0,0,.55,2.93,7.07,7.07,0,0,0,1.54,2.33,7,7,0,0,0,2.33,1.53,7.73,7.73,0,0,0,2.91.54h4a7.93,7.93,0,0,0,2.91-.54A7.05,7.05,0,0,0,91.64,71.85ZM87.8,69.78a3.69,3.69,0,0,1-1.41.25h-4A3.78,3.78,0,0,1,81,69.78,3,3,0,0,1,79.19,68a3.8,3.8,0,0,1-.25-1.43V63.91a3.8,3.8,0,0,1,.25-1.43,3.08,3.08,0,0,1,.69-1.07A3.33,3.33,0,0,1,81,60.72a4,4,0,0,1,1.42-.25h4a4,4,0,0,1,1.41.25,3.4,3.4,0,0,1,1.07.69,3.11,3.11,0,0,1,.68,1.07,3.8,3.8,0,0,1,.25,1.43v2.68A3.8,3.8,0,0,1,89.57,68a2.91,2.91,0,0,1-.69,1.07A3.18,3.18,0,0,1,87.8,69.78Z"></path><path class="cls-2" d="M96.9,73.36a1.92,1.92,0,0,0,.62.41,2,2,0,0,0,.77.15h8a7.54,7.54,0,0,0,2.91-.55,7,7,0,0,0,2.33-1.52,7.13,7.13,0,0,0,1.54-2.32,7.8,7.8,0,0,0,.55-2.93V63.91a7.74,7.74,0,0,0-.55-2.92,7.12,7.12,0,0,0-1.54-2.33,7.26,7.26,0,0,0-2.33-1.53,7.73,7.73,0,0,0-2.91-.55h-8a2.2,2.2,0,0,0-.77.15,2,2,0,0,0-.63.43,2,2,0,0,0-.41.62,2,2,0,0,0-.15.76V72a1.92,1.92,0,0,0,.57,1.39Zm3.32-12.89h6.11a4,4,0,0,1,1.42.25,3,3,0,0,1,1.77,1.77,4,4,0,0,1,.24,1.42V66.6a4.09,4.09,0,0,1-.24,1.43,3.11,3.11,0,0,1-.7,1.06,3.08,3.08,0,0,1-1.07.69,3.78,3.78,0,0,1-1.42.25h-6.11Z"></path><rect class="cls-2" x="116.3" y="56.58" width="3.89" height="17.34"></rect><path class="cls-2" d="M125,71.84a7,7,0,0,0,2.32,1.53,7.73,7.73,0,0,0,2.91.55h8.5V70h-8.5a4,4,0,0,1-1.42-.24,3.16,3.16,0,0,1-1.07-.7A3.11,3.11,0,0,1,127,68a4.06,4.06,0,0,1-.25-1.44V63.91a4.1,4.1,0,0,1,.25-1.44,3.11,3.11,0,0,1,.7-1.06,3,3,0,0,1,1.07-.69,3.82,3.82,0,0,1,1.42-.25h8.5V56.58h-8.5a7.73,7.73,0,0,0-2.91.55A7.1,7.1,0,0,0,125,58.66,6.78,6.78,0,0,0,123.41,61a7.65,7.65,0,0,0-.56,2.93v2.68a7.65,7.65,0,0,0,.56,2.93A6.87,6.87,0,0,0,125,71.84Z"></path><path class="cls-2" d="M39.4,70.48a1.56,1.56,0,0,0-.5-.33,1.69,1.69,0,0,0-.64-.12h-.88a1.69,1.69,0,0,0-.64.12,1.6,1.6,0,0,0-.51.33,1.5,1.5,0,0,0-.33.51,1.7,1.7,0,0,0-.13.64v.69a1.5,1.5,0,0,0,.13.64,1.45,1.45,0,0,0,.84.84,1.69,1.69,0,0,0,.64.12h.88a1.61,1.61,0,0,0,.63-.12,1.5,1.5,0,0,0,.51-.33,1.75,1.75,0,0,0,.34-.51,1.66,1.66,0,0,0,.12-.64v-.69a1.69,1.69,0,0,0-.12-.64A1.47,1.47,0,0,0,39.4,70.48Z"></path><path class="cls-2" d="M162.78,58.55h0a.42.42,0,0,0,.28-.44.49.49,0,0,0-.52-.49h-.95v1.77H162v-.69h.39c.19,0,.26.08.29.27a2.49,2.49,0,0,0,.06.42h.39A1,1,0,0,1,163,59C163,58.79,163,58.6,162.78,58.55Zm-.38-.13H162v-.5h.42c.17,0,.27.07.27.24A.24.24,0,0,1,162.4,58.42Z"></path><path class="cls-2" d="M162.28,56.58a1.95,1.95,0,1,0,1.95,2A2,2,0,0,0,162.28,56.58Zm0,3.48a1.53,1.53,0,1,1,1.53-1.53A1.53,1.53,0,0,1,162.28,60.06Z"></path><path class="cls-2" d="M39.75,63.51v-1.9a1.11,1.11,0,0,1,1.11-1.11H51.57V56.56H41a5.15,5.15,0,0,0-5.14,5.15v1.7A5.14,5.14,0,0,0,41,68.55h5.6V64.62H40.86A1.11,1.11,0,0,1,39.75,63.51Z"></path></svg>